<svg width="48" height="49" viewBox="0 0 48 49" fill="none" xmlns="http://www.w3.org/2000/svg">
<path fill-rule="evenodd" clip-rule="evenodd" d="M13.8209 31.757C13.9303 31.6367 14.0634 31.5407 14.212 31.4749C14.3605 31.4091 14.5212 31.3751 14.6836 31.375L41.3028 31.3968C41.4163 31.3971 41.5271 31.4302 41.6219 31.4922C41.7169 31.5542 41.7917 31.6425 41.8373 31.7462C41.8831 31.8499 41.8976 31.9648 41.8793 32.0766C41.861 32.1885 41.8106 32.2926 41.7342 32.3764L36.0656 38.618C35.9562 38.7383 35.8229 38.8344 35.6743 38.9002C35.5256 38.966 35.3648 39 35.2021 39L8.58363 38.9782C8.47028 38.9779 8.35942 38.9448 8.26453 38.8828C8.16965 38.8208 8.09482 38.7325 8.04914 38.6288C8.00347 38.5251 7.98888 38.4102 8.0072 38.2984C8.0255 38.1865 8.07591 38.0824 8.15228 37.9986L13.8209 31.757ZM41.7344 26.5608C41.8108 26.6446 41.8612 26.7487 41.8795 26.8606C41.8978 26.9724 41.8833 27.0873 41.8375 27.191C41.7919 27.2947 41.7171 27.383 41.6221 27.445C41.5273 27.507 41.4165 27.5401 41.303 27.5404L14.6845 27.5622C14.522 27.5622 14.3612 27.5282 14.2125 27.4624C14.0638 27.3967 13.9304 27.3005 13.8211 27.1802L8.15246 20.935C8.07609 20.8512 8.02568 20.7471 8.00738 20.6352C7.98907 20.5234 8.00365 20.4085 8.04933 20.3048C8.095 20.2011 8.16983 20.1128 8.26471 20.0508C8.3596 19.9888 8.47046 19.9557 8.58382 19.9554L35.203 19.9336C35.3655 19.9337 35.5262 19.9677 35.6748 20.0335C35.8233 20.0993 35.9565 20.1953 36.0657 20.3156L41.7344 26.5608ZM13.8211 8.88198C13.9304 8.76176 14.0636 8.66569 14.2122 8.59991C14.3606 8.53415 14.5214 8.5001 14.6838 8.5L41.303 8.52179C41.4165 8.52202 41.5273 8.55516 41.6221 8.61719C41.7171 8.67922 41.7919 8.76747 41.8375 8.87121C41.8833 8.97497 41.8978 9.08975 41.8795 9.20162C41.8612 9.31348 41.8108 9.41761 41.7344 9.50142L36.0657 15.743C35.9564 15.8633 35.823 15.9594 35.6745 16.0252C35.5257 16.091 35.365 16.125 35.2023 16.125L8.58382 16.1032C8.47046 16.1029 8.3596 16.0698 8.26471 16.0078C8.16983 15.9458 8.095 15.8575 8.04933 15.7538C8.00365 15.6501 7.98907 15.5352 8.00738 15.4234C8.02568 15.3115 8.07609 15.2074 8.15246 15.1236L13.8211 8.88198Z" fill="url(#paint0_linear_46_6998)"/>
<defs>
<linearGradient id="paint0_linear_46_6998" x1="26.711" y1="53.9894" x2="54.891" y2="19.202" gradientUnits="userSpaceOnUse">
<stop stop-color="#9945FF"/>
<stop offset="0.2" stop-color="#7962E7"/>
<stop offset="1" stop-color="#00D18C"/>
</linearGradient>
</defs>
</svg>
