<svg width="100" height="100" viewBox="0 0 100 100" fill="none" xmlns="http://www.w3.org/2000/svg">
<path d="M87.7152 70.2411L90.5763 67.3807C92.3767 65.5796 92.3767 62.6491 90.5763 60.8477C89.7033 59.9757 88.5437 59.495 87.3093 59.495C86.3831 59.495 85.4982 59.7659 84.7458 60.2704L84.1431 58.2469L87.24 55.1493C89.0412 53.3481 89.0412 50.4176 87.24 48.6171C85.582 46.9585 82.9683 46.8311 81.1578 48.2264L77.488 35.9065C78.8983 34.5504 80.2958 33.1812 81.6804 31.7989C85.4929 27.9856 88.5925 23.9505 90.4091 20.4348C93.4785 14.493 92.1937 11.3169 90.5755 9.6987C88.9581 8.08053 85.782 6.79635 79.8394 9.86589C76.3246 11.6817 72.2886 14.7815 68.4761 18.5946C67.0937 19.9787 65.7245 21.376 64.3687 22.7862L52.0478 19.1165C53.4433 17.3067 53.3158 14.693 51.658 13.0344C49.8566 11.2337 46.9261 11.2331 45.1257 13.0344L42.0281 16.1319L40.004 15.5292C40.5083 14.776 40.7792 13.8911 40.7792 12.9649C40.7809 12.3581 40.6621 11.757 40.43 11.1963C40.1978 10.6357 39.8567 10.1267 39.4265 9.6987C37.6259 7.89753 34.6947 7.89753 32.8943 9.6987L30.0339 12.559L15.455 8.21628C15.2003 8.14042 14.9298 8.13485 14.6722 8.20014C14.4146 8.26543 14.1794 8.39916 13.9915 8.58717L10.2388 12.3401C9.60853 12.9694 9.69174 14.046 10.4103 14.5717L47.1947 41.4965C38.9009 50.8479 30.9115 60.2106 25.2708 66.9001L14.4509 62.7383C14.1848 62.636 13.8946 62.613 13.6157 62.6721C13.3367 62.7313 13.0809 62.8701 12.8792 63.0717L8.43138 67.5196C8.15516 67.7961 8 68.171 8 68.5618C8 68.9526 8.15516 69.3275 8.43138 69.604L30.6703 91.8428C31.2378 92.4112 32.187 92.4112 32.7554 91.8428L37.2027 87.3956C37.4044 87.1939 37.5433 86.9379 37.6024 86.6589C37.6616 86.3798 37.6384 86.0895 37.5359 85.8233L33.3749 75.0042C40.0644 69.3635 49.4263 61.3741 58.7785 53.0796L61.7003 57.0727C62.2193 57.7815 63.2714 57.8731 63.9078 57.2688C64.438 56.7653 64.5113 55.9208 64.0802 55.3317L60.991 51.111C65.8816 46.7464 70.7109 42.3426 75.0925 38.193L88.9818 84.82L87.066 86.735L67.9765 60.6548C67.7456 60.3393 67.3989 60.1285 67.0126 60.0687C66.6263 60.0089 66.232 60.105 65.9165 60.3358C65.7602 60.4501 65.628 60.5941 65.5273 60.7595C65.4267 60.925 65.3596 61.1086 65.33 61.3C65.3004 61.4913 65.3088 61.6867 65.3547 61.8748C65.4006 62.0629 65.4832 62.2402 65.5976 62.3964L85.7033 89.8647C86.229 90.5835 87.3056 90.6665 87.9349 90.0362L91.6878 86.2835C91.8758 86.0956 92.0095 85.8604 92.0748 85.6028C92.1401 85.3452 92.1345 85.0747 92.0587 84.82L87.7152 70.2411ZM47.2107 15.1194C47.8546 14.4755 48.9296 14.4755 49.5736 15.1194C50.2251 15.771 50.2251 16.8307 49.5736 17.4823L48.8824 18.1735L45.2408 17.0885L47.2107 15.1194ZM34.9792 11.7839C35.63 11.1323 36.6906 11.1323 37.3421 11.7839C37.9937 12.4354 37.9937 13.4952 37.3421 14.1467L36.8874 14.6007L33.2468 13.5167L34.9792 11.7839ZM13.5392 13.2083L15.455 11.2932L62.082 25.1819C57.9324 29.5641 53.5287 34.3936 49.1632 39.284L13.5392 13.2083ZM14.2869 65.8343L23.2628 69.2866C21.5915 71.276 19.926 73.2704 18.2663 75.2696L11.5585 68.5618L14.2869 65.8343ZM20.3607 77.3639C25.4997 71.1635 52.6642 38.576 70.5613 20.679C74.1121 17.1274 77.9878 14.1413 81.1929 12.4856C83.5992 11.2423 86.8187 10.1116 88.4912 11.7839C90.1636 13.4561 89.0322 16.6758 87.7892 19.0821C86.1337 22.2872 83.1466 26.1622 79.5953 29.7137C61.6998 47.6092 29.1115 74.7743 22.9111 79.9143L20.3607 77.3639ZM34.4408 85.9882L31.7132 88.7157L25.0054 82.0079C26.2322 80.9901 28.3074 79.2637 30.9884 77.0122L34.4408 85.9882ZM86.1283 62.9329C86.7798 62.2813 87.8396 62.2813 88.4912 62.9329C89.1427 63.5844 89.1427 64.6442 88.4912 65.2958L86.7585 67.0282L85.6736 63.3876L86.1283 62.9329ZM82.7927 50.7014C83.4435 50.0499 84.504 50.0507 85.1556 50.7014C85.7996 51.3454 85.7996 52.4202 85.1556 53.0643L83.1857 55.0342L82.1007 51.3926L82.7927 50.7014Z" fill="url(#paint0_linear_46_6724)"/>
<defs>
<linearGradient id="paint0_linear_46_6724" x1="50.1372" y1="8.00024" x2="50.1372" y2="92.2691" gradientUnits="userSpaceOnUse">
<stop stop-color="white"/>
<stop offset="1" stop-color="white" stop-opacity="0.34"/>
</linearGradient>
</defs>
</svg>
