<svg width="100" height="100" viewBox="0 0 100 100" fill="none" xmlns="http://www.w3.org/2000/svg">
<path d="M83 50V77.5C83 86.6127 68.2254 94 50 94C31.7746 94 17 86.6127 17 77.5V50M83 50V22.5M83 50C83 59.1127 68.2254 66.5 50 66.5C31.7746 66.5 17 59.1127 17 50M83 22.5C83 13.3873 68.2254 6 50 6C31.7746 6 17 13.3873 17 22.5M83 22.5C83 31.6127 68.2254 39 50 39C31.7746 39 17 31.6127 17 22.5M17 50V22.5" stroke="url(#paint0_linear_46_6775)" stroke-width="5" stroke-linecap="round" stroke-linejoin="round"/>
<defs>
<linearGradient id="paint0_linear_46_6775" x1="50" y1="6" x2="50" y2="94" gradientUnits="userSpaceOnUse">
<stop stop-color="white"/>
<stop offset="1" stop-color="white" stop-opacity="0.34"/>
</linearGradient>
</defs>
</svg>
