<svg width="100" height="100" viewBox="0 0 100 100" fill="none" xmlns="http://www.w3.org/2000/svg">
<g clip-path="url(#clip0_46_6765)">
<path d="M67.5103 47.031H59.1152V38.636C59.1265 36.9428 57.7631 35.5609 56.0699 35.5496H43.9506C42.2574 35.5496 40.8847 36.9222 40.8847 38.6154V47.0105H32.5102C30.8171 46.9991 29.4351 48.3623 29.4238 50.0555V62.1751C29.4238 63.8682 30.7965 65.2409 32.4897 65.2409H40.8847V73.6154C40.8734 75.3086 42.2368 76.6905 43.93 76.7018H56.0288C57.7219 76.7018 59.0946 75.3291 59.0946 73.636V65.2409H67.4897C69.1828 65.2522 70.5648 63.8888 70.5761 62.1957V50.0969C70.5761 48.4037 69.2037 47.031 67.5103 47.031ZM66.4609 61.1257H57.0576C56.5119 61.1257 55.9885 61.3425 55.6026 61.7284C55.2167 62.1142 55 62.6376 55 63.1833V72.5866H45V63.1833C45 62.6376 44.7832 62.1142 44.3973 61.7284C44.0114 61.3425 43.4881 61.1257 42.9423 61.1257H33.5391V51.1463H42.9423C43.4881 51.1463 44.0114 50.9295 44.3973 50.5436C44.7832 50.1577 45 49.6344 45 49.0887V39.6648H54.9794V49.0681C54.9794 49.6138 55.1962 50.1372 55.582 50.523C55.9679 50.9089 56.4913 51.1257 57.037 51.1257H66.4609V61.1257Z" fill="url(#paint0_linear_46_6765)"/>
<path d="M85.8025 20.1585H68.8477V12.9157C68.9545 9.61068 66.3616 6.84473 63.0566 6.73799C62.8882 6.73255 62.7197 6.73418 62.5514 6.74288H37.4486C34.1461 6.57081 31.3295 9.10836 31.1572 12.4106C31.1483 12.5788 31.1467 12.7473 31.1523 12.9157V20.1174H14.1975C7.65432 20.1174 0 23.8416 0 34.3149V79.068C0 89.5412 7.65432 93.2655 14.1975 93.2655H85.8025C92.3457 93.2655 100 89.5412 100 79.068V34.356C100 23.8828 92.3663 20.1585 85.8025 20.1585ZM35.2675 12.9157C35.2675 12.319 35.2675 10.7141 37.4691 10.7141H62.5514C64.7531 10.7141 64.7531 12.2984 64.7531 12.9157V20.1174H35.2675V12.9157ZM95.8848 79.068C95.8848 88.1626 88.8477 89.1503 85.8025 89.1503H14.1975C11.1728 89.1503 4.11523 88.1626 4.11523 79.068V34.356C4.11523 25.2614 11.1523 24.2737 14.1975 24.2737H85.8025C88.8272 24.2737 95.8848 25.2614 95.8848 34.356V79.068Z" fill="url(#paint1_linear_46_6765)"/>
</g>
<defs>
<linearGradient id="paint0_linear_46_6765" x1="50" y1="35.5496" x2="50" y2="76.7018" gradientUnits="userSpaceOnUse">
<stop stop-color="white"/>
<stop offset="1" stop-color="white" stop-opacity="0.34"/>
</linearGradient>
<linearGradient id="paint1_linear_46_6765" x1="50" y1="6.73462" x2="50" y2="93.2655" gradientUnits="userSpaceOnUse">
<stop stop-color="white"/>
<stop offset="1" stop-color="white" stop-opacity="0.34"/>
</linearGradient>
<clipPath id="clip0_46_6765">
<rect width="100" height="100" fill="white"/>
</clipPath>
</defs>
</svg>
