<svg width="100" height="100" viewBox="0 0 100 100" fill="none" xmlns="http://www.w3.org/2000/svg">
<g clip-path="url(#clip0_46_6553)">
<path d="M98.2229 18.912C96.9272 17.3803 95.1127 16.4448 93.1133 16.2778L22.6923 10.3978C20.6927 10.2308 18.7486 10.8524 17.2167 12.1479C15.6912 13.4384 14.757 15.2436 14.5847 17.2333L13.1679 30.5254H7.51071C3.36932 30.5254 0 33.8947 0 38.0361V82.1184C0 86.2598 3.36932 89.6291 7.51071 89.6291H78.177C82.3186 89.6291 85.688 86.2598 85.688 82.1184V74.9674L88.1956 75.1768C88.4071 75.1944 88.6174 75.2032 88.826 75.2032C92.6869 75.2032 95.9783 72.2327 96.3053 68.3171L99.9734 24.3877C100.14 22.3883 99.5186 20.4438 98.2229 18.912ZM7.51071 34.4316H78.177C80.1645 34.4316 81.7817 36.0486 81.7817 38.0361V42.0529H3.90623V38.0361C3.90623 36.0486 5.52322 34.4316 7.51071 34.4316ZM3.90623 45.9591H81.7817V54.0624H3.90623V45.9591ZM78.177 85.7228H7.51071C5.52322 85.7228 3.90623 84.1059 3.90623 82.1184V57.9687H81.7817V82.1184C81.7817 84.1059 80.1645 85.7228 78.177 85.7228ZM96.0807 24.0625L92.4125 67.9919C92.2471 69.9725 90.5008 71.4501 88.5206 71.284L85.688 71.0475V38.0361C85.688 33.8947 82.3186 30.5254 78.177 30.5254H17.0964L18.4712 17.627C18.4728 17.6122 18.4741 17.5975 18.4753 17.5825C18.6407 15.6018 20.3861 14.1245 22.3673 14.2905L92.7885 20.1706C93.7481 20.2506 94.619 20.6997 95.2406 21.4348C95.8623 22.17 96.1608 23.103 96.0807 24.0625Z" fill="url(#paint0_linear_46_6553)"/>
<path d="M73.6078 63.7754H54.8105C53.7318 63.7754 52.8574 64.6498 52.8574 65.7285V77.992C52.8574 79.0707 53.7318 79.9451 54.8105 79.9451H73.6078C74.6865 79.9451 75.5609 79.0707 75.5609 77.992V65.7285C75.5609 64.6498 74.6865 63.7754 73.6078 63.7754ZM71.6547 76.0389H56.7637V67.6816H71.6547V76.0389Z" fill="url(#paint1_linear_46_6553)"/>
</g>
<defs>
<linearGradient id="paint0_linear_46_6553" x1="50" y1="10.3711" x2="50" y2="89.6291" gradientUnits="userSpaceOnUse">
<stop stop-color="white"/>
<stop offset="1" stop-color="white" stop-opacity="0.34"/>
</linearGradient>
<linearGradient id="paint1_linear_46_6553" x1="64.2092" y1="63.7754" x2="64.2092" y2="79.9451" gradientUnits="userSpaceOnUse">
<stop stop-color="white"/>
<stop offset="1" stop-color="white" stop-opacity="0.34"/>
</linearGradient>
<clipPath id="clip0_46_6553">
<rect width="100" height="100" fill="white"/>
</clipPath>
</defs>
</svg>
