<svg width="100" height="100" viewBox="0 0 100 100" fill="none" xmlns="http://www.w3.org/2000/svg">
<g clip-path="url(#clip0_46_6777)">
<path d="M41.0588 3.7715L39.541 23.36L28.6065 35.5083L16.1542 36.3066L16.9985 45.6258L27.9776 58.052L37.291 62.0433L38.0705 66.4897L41.0588 73.0871L37.693 79.786L30.7709 92.9824M7.00491 69.202L13.6442 57.8857L3.0239 46.9019M74.6772 90.0982V80.7874L69.554 70.6531L61.9946 62.5978L63.7733 50.0001M97.0769 50.0001C97.0769 75.9999 75.9999 97.0769 50.0001 97.0769C24.0003 97.0769 2.92334 75.9999 2.92334 50.0001C2.92334 24.0003 24.0003 2.92334 50.0001 2.92334M97.0769 50.0001C97.0769 24.0003 75.9999 2.92334 50.0001 2.92334M97.0769 50.0001H50.0001L50.0001 2.92334M50.0001 32.8615C59.5101 32.8615 67.2196 40.5709 67.2196 50.081M50.0001 18.2331C67.5444 18.2331 81.7671 32.4557 81.7671 50.0001" stroke="url(#paint0_linear_46_6777)" stroke-width="5" stroke-miterlimit="10"/>
</g>
<defs>
<linearGradient id="paint0_linear_46_6777" x1="50.0001" y1="2.92334" x2="50.0001" y2="97.0769" gradientUnits="userSpaceOnUse">
<stop stop-color="white"/>
<stop offset="1" stop-color="white" stop-opacity="0.34"/>
</linearGradient>
<clipPath id="clip0_46_6777">
<rect width="100" height="100" fill="white"/>
</clipPath>
</defs>
</svg>
