<svg width="100" height="100" viewBox="0 0 100 100" fill="none" xmlns="http://www.w3.org/2000/svg">
<path d="M50.7876 19.4833C50.5484 19.3442 50.2767 19.271 50.0001 19.271C49.7234 19.271 49.4517 19.3442 49.2126 19.4833L24.2126 34.0666C23.9767 34.2043 23.781 34.4013 23.645 34.6382C23.509 34.8751 23.4375 35.1435 23.4376 35.4166V64.5833C23.4375 64.8564 23.509 65.1248 23.645 65.3616C23.781 65.5985 23.9767 65.7956 24.2126 65.9333L49.2126 80.5166C49.7063 80.802 50.2959 80.8041 50.7876 80.5166L75.7876 65.9333C76.0235 65.7956 76.2192 65.5985 76.3551 65.3616C76.4911 65.1248 76.5626 64.8564 76.5626 64.5833V35.4166C76.5626 35.1435 76.4911 34.8751 76.3551 34.6382C76.2192 34.4013 76.0235 34.2043 75.7876 34.0666L50.7876 19.4833ZM50.0001 48.1916L40.4542 42.6229L62.2251 29.7749L71.9021 35.4166L50.0001 48.1916ZM50.0001 22.6416L59.1355 27.9708L37.3626 40.8187L28.1001 35.4166L50.0001 22.6416ZM26.5626 38.1374L48.4376 50.8979V76.4458L26.5626 63.6854V38.1374ZM51.5626 76.4458V50.8979L73.4376 38.1374V63.6854L51.5626 76.4458ZM24.7292 13.6562C32.1347 8.47278 40.9608 5.70415 50.0001 5.7291C60.3794 5.70264 70.433 9.35152 78.3792 16.0291H76.5167C74.4855 16.0291 74.498 19.1541 76.5167 19.1541H82.4105C82.8249 19.1541 83.2223 18.9895 83.5153 18.6965C83.8084 18.4034 83.973 18.006 83.973 17.5916V11.6979C83.973 9.71869 80.848 9.66452 80.848 11.6979V14.052C72.2794 6.64577 61.3258 2.58078 50.0001 2.6041C40.2396 2.6041 30.8813 5.53952 22.9396 11.0937C21.3271 12.2208 23.0584 14.827 24.7313 13.6562H24.7292ZM88.3021 80.8479H85.948C93.3542 72.2793 97.4192 61.3257 97.3959 49.9999C97.3959 40.2374 94.4584 30.8791 88.9063 22.9374C87.7792 21.327 85.1563 23.0354 86.3438 24.7291C91.5272 32.1346 94.2958 40.9607 94.2709 49.9999C94.2974 60.3793 90.6485 70.4329 83.9709 78.3791V76.5166C83.9709 74.4895 80.8459 74.4916 80.8459 76.5166V82.4104C80.8459 83.2729 81.5459 83.9729 82.4084 83.9729H88.3021C90.248 83.9729 90.3438 80.8479 88.3021 80.8479ZM75.2709 86.3437C67.8654 91.5271 59.0393 94.2957 50.0001 94.2708C39.6207 94.2972 29.5671 90.6484 21.6209 83.9708H23.4834C25.4917 83.9708 25.5105 80.8458 23.4834 80.8458H17.5896C17.1752 80.8458 16.7778 81.0104 16.4848 81.3034C16.1918 81.5964 16.0271 81.9939 16.0271 82.4083V88.302C16.0271 90.3083 19.1521 90.3374 19.1521 88.302V85.9479C27.7207 93.3541 38.6743 97.4191 50.0001 97.3958C59.7605 97.3958 69.1188 94.4583 77.0605 88.9062C78.5938 87.8333 76.998 85.1354 75.2709 86.3437ZM5.72923 49.9999C5.70277 39.6206 9.35164 29.567 16.0292 21.6208V23.4833C16.0292 25.4916 19.1542 25.5104 19.1542 23.4833V17.5895C19.1542 17.1751 18.9896 16.7777 18.6966 16.4847C18.4036 16.1916 18.0061 16.027 17.5917 16.027H11.698C9.69172 16.027 9.66464 19.152 11.698 19.152H14.0521C6.64589 27.7206 2.5809 38.6742 2.60423 49.9999C2.60423 59.7603 5.54172 69.1187 11.0938 77.0603C12.2021 78.6437 14.8313 76.9458 13.6563 75.2687C8.47332 67.8638 5.7047 59.0385 5.72923 49.9999Z" fill="url(#paint0_linear_46_6564)"/>
<defs>
<linearGradient id="paint0_linear_46_6564" x1="50.0001" y1="2.604" x2="50.0001" y2="97.3959" gradientUnits="userSpaceOnUse">
<stop stop-color="white"/>
<stop offset="1" stop-color="white" stop-opacity="0.34"/>
</linearGradient>
</defs>
</svg>
