<svg width="100" height="100" viewBox="0 0 100 100" fill="none" xmlns="http://www.w3.org/2000/svg">
<path d="M63.5925 46.7847C58.7233 46.7847 54.7622 50.7458 54.7622 55.615C54.7622 60.4854 58.7233 64.4465 63.5925 64.4465C68.4617 64.4465 72.4228 60.4842 72.4228 55.615C72.4228 50.7458 68.4617 46.7847 63.5925 46.7847ZM63.5925 59.4843C62.5668 59.483 61.5835 59.0749 60.8584 58.3495C60.1332 57.6241 59.7254 56.6407 59.7244 55.615C59.7257 54.5895 60.1337 53.6064 60.8588 52.8813C61.5839 52.1562 62.567 51.7482 63.5925 51.7469C64.618 51.7482 65.6011 52.1562 66.3262 52.8813C67.0513 53.6064 67.4592 54.5895 67.4605 55.615C67.4596 56.6407 67.0518 57.6241 66.3266 58.3495C65.6015 59.0749 64.6182 59.483 63.5925 59.4843ZM36.3795 46.7847C31.5103 46.7847 27.5492 50.7458 27.5492 55.615C27.5492 60.4854 31.5103 64.4465 36.3795 64.4465C41.2487 64.4465 45.2098 60.4842 45.2098 55.615C45.2098 50.7458 41.2487 46.7847 36.3795 46.7847ZM36.3795 59.4843C35.3538 59.483 34.3705 59.0749 33.6454 58.3495C32.9202 57.6241 32.5124 56.6407 32.5114 55.615C32.5128 54.5895 32.9207 53.6064 33.6458 52.8813C34.3709 52.1562 35.354 51.7482 36.3795 51.7469C37.405 51.7482 38.3881 52.1562 39.1132 52.8813C39.8383 53.6064 40.2463 54.5895 40.2476 55.615C40.2466 56.6407 39.8388 57.6241 39.1136 58.3495C38.3885 59.0749 37.4052 59.483 36.3795 59.4843Z" fill="url(#paint0_linear_46_6730)"/>
<path d="M89.9966 46.3183H87.9447V37.8763C87.9447 32.2292 83.3509 27.6342 77.7026 27.6342H52.4671V21.9152C56.3004 20.8297 59.119 17.3078 59.119 13.132C59.119 8.09658 55.0226 4.00024 49.986 4.00024C44.9493 4.00024 40.8529 8.09658 40.8529 13.132C40.8529 17.3078 43.6715 20.8297 47.5048 21.9152V27.6342H22.2693C16.621 27.6342 12.0272 32.2292 12.0272 37.8763V46.3183H9.97536C4.47471 46.3183 0 50.793 0 56.2924V67.6374C0 73.1368 4.47471 77.6115 9.97536 77.6115H12.0272V86.0535C12.0272 91.7005 16.621 96.2956 22.2693 96.2956H77.7026C83.3496 96.2956 87.9447 91.7005 87.9447 86.0535V77.6115H89.9966C95.4972 77.6115 99.9719 73.1368 99.9719 67.6374V56.2924C99.9719 50.793 95.496 46.3183 89.9966 46.3183ZM45.8152 13.1333C45.8152 10.8333 47.686 8.96249 49.986 8.96249C52.286 8.96249 54.1567 10.8333 54.1567 13.132C54.1567 15.432 52.2847 17.304 49.986 17.304C47.6872 17.304 45.8152 15.4333 45.8152 13.1333ZM9.97536 72.6492C8.64642 72.6479 7.37226 72.1195 6.43244 71.1799C5.49262 70.2403 4.96389 68.9663 4.96225 67.6374V56.2937C4.96389 54.9647 5.49262 53.6907 6.43244 52.7511C7.37226 51.8115 8.64642 51.2831 9.97536 51.2818H12.0272V72.6492H9.97536ZM82.9824 86.0535C82.9811 87.4534 82.4244 88.7956 81.4345 89.7855C80.4447 90.7753 79.1025 91.332 77.7026 91.3333H22.2693C20.8694 91.332 19.5273 90.7753 18.5374 89.7855C17.5475 88.7956 16.9908 87.4534 16.9895 86.0535V37.8763C16.9908 36.4764 17.5475 35.1342 18.5374 34.1443C19.5273 33.1544 20.8694 32.5978 22.2693 32.5964H77.7026C79.1025 32.5978 80.4447 33.1544 81.4345 34.1443C82.4244 35.1342 82.9811 36.4764 82.9824 37.8763V75.1303V86.0535ZM95.0097 67.6374C95.008 68.9663 94.4793 70.2403 93.5395 71.1799C92.5997 72.1195 91.3255 72.6479 89.9966 72.6492H87.9447V51.2805H89.9966C91.3255 51.2819 92.5997 51.8103 93.5395 52.7499C94.4793 53.6895 95.008 54.9635 95.0097 56.2924V67.6374Z" fill="url(#paint1_linear_46_6730)"/>
<defs>
<linearGradient id="paint0_linear_46_6730" x1="49.986" y1="46.7847" x2="49.986" y2="64.4465" gradientUnits="userSpaceOnUse">
<stop stop-color="white"/>
<stop offset="1" stop-color="white" stop-opacity="0.34"/>
</linearGradient>
<linearGradient id="paint1_linear_46_6730" x1="49.986" y1="4.00024" x2="49.986" y2="96.2956" gradientUnits="userSpaceOnUse">
<stop stop-color="white"/>
<stop offset="1" stop-color="white" stop-opacity="0.34"/>
</linearGradient>
</defs>
</svg>
