<svg width="100" height="100" viewBox="0 0 100 100" fill="none" xmlns="http://www.w3.org/2000/svg">
<g clip-path="url(#clip0_46_6771)">
<path d="M76.4892 42.527V26.6907C76.5316 19.5251 73.6696 12.6351 68.5604 7.61077C63.6209 2.69239 57.1549 0 50.3073 0H49.9681C35.3614 0.0211999 23.4894 11.978 23.4894 26.6907V42.527C17.9774 43.1842 13.9495 47.8058 13.9495 53.4026V88.976C13.9495 95.018 18.783 100 24.825 100H75.1748C81.2168 100 86.0504 95.018 86.0504 88.976V53.4026C86.0292 47.827 82.0012 43.1842 76.4892 42.527ZM27.7082 26.6907H27.7294C27.7294 14.3099 37.7146 4.17638 49.9893 4.17638H50.0105C55.8405 4.15518 61.4373 6.46597 65.5712 10.5788C69.8748 14.8399 72.2704 20.6487 72.228 26.6907V42.5482H67.564V26.6907C67.6064 21.8783 65.6984 17.2567 62.2853 13.8647C59.0629 10.6424 54.6957 8.81916 50.1377 8.81916H50.0105C40.2586 8.81916 32.3722 16.8327 32.3722 26.6695V42.5482H27.7082V26.6907ZM63.3453 26.6907V42.5482H36.6334V26.6907C36.6334 19.1859 42.6117 13.0803 50.0317 13.0803H50.1589C53.5933 13.0803 56.9005 14.4583 59.3385 16.8963C61.9249 19.4827 63.3877 23.0231 63.3453 26.6907ZM82.0012 89.0396C82.0012 92.7496 78.9908 95.76 75.2808 95.76H24.9098C21.1998 95.76 18.1894 92.7496 18.1894 89.0396V53.5086C18.1894 49.7986 21.1998 46.7882 24.9098 46.7882H75.2808C78.9908 46.7882 82.0012 49.7986 82.0012 53.5086V89.0396Z" fill="url(#paint0_linear_46_6771)"/>
<path d="M57.3245 69.9597C56.3917 66.6737 53.4025 64.4265 49.9894 64.4265C45.7706 64.4265 42.3362 67.8397 42.3362 72.0797C42.3362 75.4929 44.5834 78.4821 47.8694 79.4149V85.3508C47.8694 86.5168 48.8234 87.4708 49.9894 87.4708C51.1553 87.4708 52.1093 86.5168 52.1093 85.3508V79.4149C56.1585 78.2489 58.5117 74.0089 57.3245 69.9597ZM49.9894 75.4717C48.1026 75.4717 46.5762 73.9453 46.5762 72.0585C46.5762 70.1717 48.1026 68.6453 49.9894 68.6453C51.8761 68.6453 53.4025 70.1717 53.4025 72.0585C53.4025 73.9453 51.8761 75.4717 49.9894 75.4717Z" fill="url(#paint1_linear_46_6771)"/>
</g>
<defs>
<linearGradient id="paint0_linear_46_6771" x1="49.9999" y1="0" x2="49.9999" y2="100" gradientUnits="userSpaceOnUse">
<stop stop-color="white"/>
<stop offset="1" stop-color="white" stop-opacity="0.34"/>
</linearGradient>
<linearGradient id="paint1_linear_46_6771" x1="49.9843" y1="64.4265" x2="49.9843" y2="87.4708" gradientUnits="userSpaceOnUse">
<stop stop-color="white"/>
<stop offset="1" stop-color="white" stop-opacity="0.34"/>
</linearGradient>
<clipPath id="clip0_46_6771">
<rect width="100" height="100" fill="white"/>
</clipPath>
</defs>
</svg>
