<svg width="100" height="100" viewBox="0 0 100 100" fill="none" xmlns="http://www.w3.org/2000/svg">
<g clip-path="url(#clip0_46_6734)">
<path d="M45.8334 51.3708V6.2499C45.8334 5.0999 44.9 4.1665 43.75 4.1665C19.625 4.1665 0 25.6624 0 52.0831C0 78.5038 21.4959 99.9999 47.9166 99.9999C59.7375 99.9999 66.1332 97.8583 74.2416 91.1915C75.1125 90.4749 75.2541 89.1956 74.5625 88.304L45.8334 51.3708ZM47.9166 95.8333C23.7916 95.8333 4.1666 76.2083 4.1666 52.0833C4.1666 28.7333 20.8041 9.5958 41.6666 8.3917V52.0833C41.6666 52.5458 41.8207 52.9958 42.1082 53.3624L70.0082 89.2333C63.4291 94.2583 57.9416 95.8333 47.9166 95.8333Z" fill="url(#paint0_linear_46_6734)"/>
<path d="M52.0834 50H97.9168C99.0668 50 100 49.0666 100 47.9166C100 21.4959 78.5041 0 52.0834 0C50.9334 0 50 0.933398 50 2.0834V47.9168C50 49.0666 50.9334 50 52.0834 50ZM54.1666 4.2166C76.6375 5.275 94.725 23.3625 95.7832 45.8332H54.1666V4.2166ZM97.9166 54.1666H56.25C55.8561 54.1672 55.4704 54.2789 55.1372 54.489C54.804 54.6991 54.5369 54.9989 54.3666 55.3541C54.1976 55.7087 54.1325 56.104 54.179 56.4941C54.2254 56.8842 54.3815 57.2532 54.6291 57.5582L81.7125 91.0873C82.075 91.5414 82.6084 91.8164 83.1875 91.8582C83.2375 91.8623 83.2834 91.8623 83.3334 91.8623C83.8584 91.8623 84.3668 91.6623 84.7543 91.3039C94.4416 82.2666 100 69.4916 100 56.25C100 55.1 99.0666 54.1666 97.9166 54.1666ZM83.5125 86.6834L60.6125 58.3334H95.7834C95.2709 68.925 90.8875 79.0541 83.5125 86.6834Z" fill="url(#paint1_linear_46_6734)"/>
</g>
<defs>
<linearGradient id="paint0_linear_46_6734" x1="37.5004" y1="4.1665" x2="37.5004" y2="99.9999" gradientUnits="userSpaceOnUse">
<stop stop-color="white"/>
<stop offset="1" stop-color="white" stop-opacity="0.34"/>
</linearGradient>
<linearGradient id="paint1_linear_46_6734" x1="75.0001" y1="0" x2="75.0001" y2="91.8623" gradientUnits="userSpaceOnUse">
<stop stop-color="white"/>
<stop offset="1" stop-color="white" stop-opacity="0.34"/>
</linearGradient>
<clipPath id="clip0_46_6734">
<rect width="100" height="100" fill="white"/>
</clipPath>
</defs>
</svg>
