<svg width="100" height="100" viewBox="0 0 100 100" fill="none" xmlns="http://www.w3.org/2000/svg">
<g clip-path="url(#clip0_46_6727)">
<path d="M50 0C22.4689 0 0 22.4705 0 50C0 77.5311 22.4705 100 50 100C77.5311 100 100 77.5295 100 50C100 22.4689 77.5295 0 50 0ZM35.0855 8.45508C31.6551 12.8166 29.1621 18.209 27.4371 23.4375H14.7697C19.8992 16.6512 26.9404 11.3881 35.0855 8.45508ZM11.0258 29.2773H25.7793C24.4539 34.8314 23.6715 40.8607 23.4836 47.0703H5.95898C6.37969 40.6822 8.16465 34.642 11.0258 29.2773ZM11.0258 70.7031C8.16465 65.3385 6.37969 59.3178 5.95898 52.9297H23.4836C23.6715 59.1393 24.4539 65.149 25.7793 70.7031H11.0258ZM14.7697 76.5625H27.4369C29.1615 81.7896 31.6545 87.1828 35.0855 91.5449C26.9404 88.6119 19.8992 83.3488 14.7697 76.5625ZM47.0703 93.6434C40.5291 91.4445 36.0191 83.0469 33.6371 76.5625H47.0703V93.6434ZM47.0703 70.7031H31.8135C30.3896 65.2275 29.5459 59.2023 29.3453 52.9297H47.0703V70.7031ZM47.0703 47.0703H29.3453C29.5461 40.7977 30.3898 34.7725 31.8135 29.2969H47.0703V47.0703ZM47.0703 23.4375H33.6371C36.0189 16.9533 40.5291 8.55547 47.0703 6.35664V23.4375ZM88.9742 29.2969C91.8355 34.6615 93.6203 40.6822 94.041 47.0703H76.5164C76.3285 40.8607 75.5461 34.851 74.2207 29.2969H88.9742ZM85.2303 23.4375H72.5631C70.8385 18.2104 68.3455 12.8172 64.9145 8.45508C73.0596 11.3881 80.1008 16.6512 85.2303 23.4375ZM52.9297 6.35664C59.4709 8.55547 63.9809 16.9531 66.3629 23.4375H52.9297V6.35664ZM52.9297 29.2969H68.1865C69.6104 34.7725 70.4541 40.7977 70.6547 47.0703H52.9297V29.2969ZM52.9297 52.9102H70.6547C70.4539 59.1828 69.6102 65.2275 68.1865 70.7031H52.9297V52.9102ZM52.9297 93.6434V76.543H66.3629C63.9811 83.0271 59.4709 91.4445 52.9297 93.6434ZM64.9145 91.5449C68.3449 87.1834 70.8379 81.7713 72.5631 76.543H85.2303C80.1008 83.3293 73.0596 88.6119 64.9145 91.5449ZM88.9742 70.7031H74.2207C75.5461 65.149 76.3285 59.1197 76.5164 52.9102H94.041C93.6203 59.2982 91.8354 65.3385 88.9742 70.7031Z" fill="url(#paint0_linear_46_6727)"/>
</g>
<defs>
<linearGradient id="paint0_linear_46_6727" x1="50" y1="0" x2="50" y2="100" gradientUnits="userSpaceOnUse">
<stop stop-color="white"/>
<stop offset="1" stop-color="white" stop-opacity="0.34"/>
</linearGradient>
<clipPath id="clip0_46_6727">
<rect width="100" height="100" fill="white"/>
</clipPath>
</defs>
</svg>
