<svg width="48" height="48" viewBox="0 0 48 48" fill="none" xmlns="http://www.w3.org/2000/svg">
<rect width="48" height="48" rx="8" fill="url(#paint0_linear_33_921)"/>
<g clip-path="url(#clip0_33_921)">
<path fill-rule="evenodd" clip-rule="evenodd" d="M13.6499 23.5623C20.0923 20.7554 24.3883 18.905 26.5378 18.0109C32.675 15.4582 33.9503 15.0148 34.7815 15.0002C34.9643 14.9969 35.3731 15.0422 35.6379 15.2571C35.8614 15.4385 35.9229 15.6836 35.9524 15.8556C35.9818 16.0276 36.0185 16.4194 35.9893 16.7256C35.6568 20.22 34.2177 28.7001 33.4856 32.6139C33.1758 34.27 32.5658 34.8253 31.9753 34.8796C30.6919 34.9977 29.7174 34.0315 28.4744 33.2167C26.5294 31.9417 25.4305 31.148 23.5425 29.9038C21.3606 28.466 22.7751 27.6757 24.0185 26.3842C24.344 26.0462 29.9985 20.903 30.1079 20.4365C30.1216 20.3781 30.1343 20.1606 30.0051 20.0458C29.8759 19.9309 29.6851 19.9702 29.5475 20.0014C29.3524 20.0457 26.2452 22.0995 20.2258 26.1627C19.3439 26.7683 18.545 27.0634 17.8292 27.0479C17.0402 27.0309 15.5223 26.6018 14.394 26.235C13.01 25.7851 11.91 25.5473 12.0058 24.7832C12.0557 24.3853 12.6037 23.9783 13.6499 23.5623Z" fill="white"/>
</g>
<defs>
<linearGradient id="paint0_linear_33_921" x1="9.80993e-08" y1="34" x2="80" y2="13.5" gradientUnits="userSpaceOnUse">
<stop offset="0.195837" stop-color="#2447FF"/>
<stop offset="1" stop-color="#E3006D" stop-opacity="0.46"/>
</linearGradient>
<clipPath id="clip0_33_921">
<rect width="24" height="24" fill="white" transform="translate(12 12)"/>
</clipPath>
</defs>
</svg>
