<svg width="48" height="48" viewBox="0 0 48 48" fill="none" xmlns="http://www.w3.org/2000/svg">
<rect width="48" height="48" rx="8" fill="url(#paint0_linear_33_929)"/>
<g clip-path="url(#clip0_33_929)">
<path fill-rule="evenodd" clip-rule="evenodd" d="M34.7466 16.8341C35.119 17.2089 35.3864 17.6749 35.5221 18.1855C36.0239 20.07 36.0239 24 36.0239 24C36.0239 24 36.0239 27.93 35.5221 29.8146C35.3864 30.3251 35.119 30.7911 34.7466 31.1659C34.3743 31.5407 33.91 31.8111 33.4003 31.95C31.5239 32.4546 24.0239 32.4546 24.0239 32.4546C24.0239 32.4546 16.5239 32.4546 14.6476 31.95C14.1379 31.8111 13.6736 31.5407 13.3012 31.1659C12.9288 30.7911 12.6614 30.3251 12.5257 29.8146C12.0239 27.93 12.0239 24 12.0239 24C12.0239 24 12.0239 20.07 12.5257 18.1855C12.6614 17.6749 12.9288 17.2089 13.3012 16.8341C13.6736 16.4594 14.1379 16.189 14.6476 16.05C16.5239 15.5455 24.0239 15.5455 24.0239 15.5455C24.0239 15.5455 31.5239 15.5455 33.4003 16.05C33.91 16.189 34.3743 16.4594 34.7466 16.8341ZM27.8421 24L21.5693 20.4314V27.5687L27.8421 24Z" fill="white"/>
</g>
<defs>
<linearGradient id="paint0_linear_33_929" x1="9.80993e-08" y1="34" x2="80" y2="13.5" gradientUnits="userSpaceOnUse">
<stop offset="0.195837" stop-color="#2447FF"/>
<stop offset="1" stop-color="#E3006D" stop-opacity="0.46"/>
</linearGradient>
<clipPath id="clip0_33_929">
<rect width="24" height="24" fill="white" transform="translate(12 12)"/>
</clipPath>
</defs>
</svg>
