<svg width="266" height="127" viewBox="0 0 266 127" fill="none" xmlns="http://www.w3.org/2000/svg">
<g filter="url(#filter0_f_33_1411)">
<ellipse cx="133" cy="63.5" rx="93" ry="23.5" fill="#2447FF"/>
</g>
<path d="M40 32H209.5L232 49.5V96H213V92H188V96H60.5L40 78V32Z" fill="#2447FF"/>
<path d="M102.436 69.26C100.263 69.26 98.763 68.4067 97.9363 66.7L99.9163 65.54C100.383 66.5267 101.23 67.02 102.456 67.02C103.256 67.02 103.87 66.8267 104.296 66.44C104.736 66.04 104.956 65.48 104.956 64.76V55H107.256V64.76C107.256 66.2 106.803 67.3133 105.896 68.1C105.003 68.8733 103.85 69.26 102.436 69.26ZM121.625 67.16C120.225 68.56 118.512 69.26 116.485 69.26C114.459 69.26 112.739 68.56 111.325 67.16C109.925 65.7467 109.225 64.0267 109.225 62C109.225 59.9733 109.925 58.26 111.325 56.86C112.739 55.4467 114.459 54.74 116.485 54.74C118.512 54.74 120.225 55.4467 121.625 56.86C123.039 58.26 123.745 59.9733 123.745 62C123.745 64.0267 123.039 65.7467 121.625 67.16ZM112.945 65.6C113.919 66.5467 115.099 67.02 116.485 67.02C117.885 67.02 119.059 66.5467 120.005 65.6C120.965 64.64 121.445 63.44 121.445 62C121.445 60.56 120.965 59.3667 120.005 58.42C119.059 57.46 117.885 56.98 116.485 56.98C115.085 56.98 113.905 57.46 112.945 58.42C111.999 59.3667 111.525 60.56 111.525 62C111.525 63.4267 111.999 64.6267 112.945 65.6ZM125.843 69V55H128.143V69H125.843ZM139.341 64.5V55H141.641V69H139.841L133.241 59.5V69H130.941V55H132.741L139.341 64.5ZM149.297 64.36V55H151.597V64.22C151.597 65.0867 151.85 65.7733 152.357 66.28C152.877 66.7733 153.624 67.02 154.597 67.02C155.57 67.02 156.31 66.7733 156.817 66.28C157.337 65.7733 157.597 65.0867 157.597 64.22V55H159.897V64.36C159.897 65.84 159.404 67.0333 158.417 67.94C157.444 68.82 156.17 69.26 154.597 69.26C153.024 69.26 151.75 68.82 150.777 67.94C149.79 67.0333 149.297 65.84 149.297 64.36ZM167.203 69.26C165.856 69.26 164.709 68.96 163.763 68.36C162.829 67.7467 162.176 66.9 161.803 65.82L163.783 64.66C164.343 66.2333 165.503 67.02 167.263 67.02C168.116 67.02 168.763 66.8533 169.203 66.52C169.643 66.1867 169.863 65.74 169.863 65.18C169.863 64.62 169.629 64.1867 169.163 63.88C168.696 63.5733 167.869 63.24 166.683 62.88C165.469 62.52 164.489 62.0933 163.743 61.6C162.836 60.96 162.383 60.02 162.383 58.78C162.383 57.54 162.823 56.56 163.703 55.84C164.569 55.1067 165.629 54.74 166.883 54.74C167.989 54.74 168.963 55.0133 169.803 55.56C170.656 56.0933 171.309 56.8467 171.763 57.82L169.823 58.94C169.236 57.6333 168.256 56.98 166.883 56.98C166.216 56.98 165.683 57.14 165.283 57.46C164.883 57.7667 164.683 58.1867 164.683 58.72C164.683 59.24 164.883 59.6533 165.283 59.96C165.683 60.2533 166.423 60.5667 167.503 60.9C168.169 61.1267 168.556 61.26 168.663 61.3C168.836 61.3533 169.183 61.4867 169.703 61.7C170.129 61.8733 170.469 62.06 170.723 62.26C171.763 63.0733 172.243 64.0333 172.163 65.14C172.163 66.4067 171.703 67.4133 170.783 68.16C169.889 68.8933 168.696 69.26 167.203 69.26Z" fill="white"/>
<defs>
<filter id="filter0_f_33_1411" x="0" y="0" width="266" height="127" filterUnits="userSpaceOnUse" color-interpolation-filters="sRGB">
<feFlood flood-opacity="0" result="BackgroundImageFix"/>
<feBlend mode="normal" in="SourceGraphic" in2="BackgroundImageFix" result="shape"/>
<feGaussianBlur stdDeviation="20" result="effect1_foregroundBlur_33_1411"/>
</filter>
</defs>
</svg>
