<svg width="270" height="64" viewBox="0 0 270 64" fill="none" xmlns="http://www.w3.org/2000/svg">
<path d="M0 0H249.5L270 17.5V64H243.281V60H208.125V64H17L0 46V0Z" fill="url(#paint0_linear_41_3611)" fill-opacity="0.24"/>
<path d="M26.2317 37H23.4717L18.6117 23H21.1317L24.8517 34.22L28.5917 23H31.0917L26.2317 37ZM32.5875 37V23H34.8875V37H32.5875ZM37.6852 23H43.1852C45.1052 23 46.6985 23.6733 47.9652 25.02C49.2452 26.3667 49.8852 28.0267 49.8852 30C49.8852 31.96 49.2452 33.62 47.9652 34.98C46.6985 36.3267 45.1052 37 43.1852 37H37.6852V23ZM39.9852 34.8H43.1852C44.5052 34.8 45.5785 34.3467 46.4052 33.44C47.2452 32.5333 47.6652 31.3867 47.6652 30C47.6652 28.6133 47.2452 27.4667 46.4052 26.56C45.5785 25.6533 44.5052 25.2 43.1852 25.2H39.9852V34.8ZM54.282 31.02V34.8H60.482V37H51.982V23H60.382V25.2H54.282V28.84H59.882V31.02H54.282ZM74.1703 35.16C72.7703 36.56 71.057 37.26 69.0303 37.26C67.0036 37.26 65.2836 36.56 63.8703 35.16C62.4703 33.7467 61.7703 32.0267 61.7703 30C61.7703 27.9733 62.4703 26.26 63.8703 24.86C65.2836 23.4467 67.0036 22.74 69.0303 22.74C71.057 22.74 72.7703 23.4467 74.1703 24.86C75.5836 26.26 76.2903 27.9733 76.2903 30C76.2903 32.0267 75.5836 33.7467 74.1703 35.16ZM65.4903 33.6C66.4636 34.5467 67.6436 35.02 69.0303 35.02C70.4303 35.02 71.6036 34.5467 72.5503 33.6C73.5103 32.64 73.9903 31.44 73.9903 30C73.9903 28.56 73.5103 27.3667 72.5503 26.42C71.6036 25.46 70.4303 24.98 69.0303 24.98C67.6303 24.98 66.4503 25.46 65.4903 26.42C64.5436 27.3667 64.0703 28.56 64.0703 30C64.0703 31.4267 64.5436 32.6267 65.4903 33.6ZM83.3883 23H88.5483C89.8683 23 90.9683 23.44 91.8483 24.32C92.7416 25.2 93.1883 26.2933 93.1883 27.6C93.1883 28.8933 92.7416 29.9867 91.8483 30.88C90.9683 31.76 89.8683 32.2 88.5483 32.2H85.6883V37H83.3883V23ZM85.6883 30.04H88.5483C89.2283 30.04 89.7883 29.8133 90.2283 29.36C90.6683 28.8933 90.8883 28.3067 90.8883 27.6C90.8883 26.8933 90.6683 26.3133 90.2283 25.86C89.7883 25.3933 89.2283 25.16 88.5483 25.16H85.6883V30.04ZM105.685 37H103.165L100.205 31.9H97.4852V37H95.1852V23H100.785C102.038 23 103.098 23.44 103.965 24.32C104.845 25.1733 105.285 26.2333 105.285 27.5C105.285 28.3933 105.025 29.2133 104.505 29.96C103.998 30.6933 103.332 31.2267 102.505 31.56L105.685 37ZM100.785 25.16H97.4852V29.84H100.785C101.398 29.84 101.918 29.6133 102.345 29.16C102.772 28.7067 102.985 28.1533 102.985 27.5C102.985 26.8467 102.772 26.2933 102.345 25.84C101.918 25.3867 101.398 25.16 100.785 25.16ZM109.751 31.02V34.8H115.951V37H107.451V23H115.851V25.2H109.751V28.84H115.351V31.02H109.751ZM122.716 37.26C121.37 37.26 120.223 36.96 119.276 36.36C118.343 35.7467 117.69 34.9 117.316 33.82L119.296 32.66C119.856 34.2333 121.016 35.02 122.776 35.02C123.63 35.02 124.276 34.8533 124.716 34.52C125.156 34.1867 125.376 33.74 125.376 33.18C125.376 32.62 125.143 32.1867 124.676 31.88C124.21 31.5733 123.383 31.24 122.196 30.88C120.983 30.52 120.003 30.0933 119.256 29.6C118.35 28.96 117.896 28.02 117.896 26.78C117.896 25.54 118.336 24.56 119.216 23.84C120.083 23.1067 121.143 22.74 122.396 22.74C123.503 22.74 124.476 23.0133 125.316 23.56C126.17 24.0933 126.823 24.8467 127.276 25.82L125.336 26.94C124.75 25.6333 123.77 24.98 122.396 24.98C121.73 24.98 121.196 25.14 120.796 25.46C120.396 25.7667 120.196 26.1867 120.196 26.72C120.196 27.24 120.396 27.6533 120.796 27.96C121.196 28.2533 121.936 28.5667 123.016 28.9C123.683 29.1267 124.07 29.26 124.176 29.3C124.35 29.3533 124.696 29.4867 125.216 29.7C125.643 29.8733 125.983 30.06 126.236 30.26C127.276 31.0733 127.756 32.0333 127.676 33.14C127.676 34.4067 127.216 35.4133 126.296 36.16C125.403 36.8933 124.21 37.26 122.716 37.26ZM131.86 31.02V34.8H138.06V37H129.56V23H137.96V25.2H131.86V28.84H137.46V31.02H131.86ZM148.566 32.5V23H150.866V37H149.066L142.466 27.5V37H140.166V23H141.966L148.566 32.5ZM152.562 23H162.762V25.2H158.822V37H156.522V25.2H152.562V23ZM175.066 37H172.586L171.606 34.18H165.646L164.666 37H162.166L167.246 23H170.006L175.066 37ZM168.626 25.7L166.406 32.02H170.846L168.626 25.7ZM174.476 23H184.676V25.2H180.736V37H178.436V25.2H174.476V23ZM186.377 37V23H188.677V37H186.377ZM203.174 35.16C201.774 36.56 200.061 37.26 198.034 37.26C196.008 37.26 194.288 36.56 192.874 35.16C191.474 33.7467 190.774 32.0267 190.774 30C190.774 27.9733 191.474 26.26 192.874 24.86C194.288 23.4467 196.008 22.74 198.034 22.74C200.061 22.74 201.774 23.4467 203.174 24.86C204.588 26.26 205.294 27.9733 205.294 30C205.294 32.0267 204.588 33.7467 203.174 35.16ZM194.494 33.6C195.468 34.5467 196.648 35.02 198.034 35.02C199.434 35.02 200.608 34.5467 201.554 33.6C202.514 32.64 202.994 31.44 202.994 30C202.994 28.56 202.514 27.3667 201.554 26.42C200.608 25.46 199.434 24.98 198.034 24.98C196.634 24.98 195.454 25.46 194.494 26.42C193.548 27.3667 193.074 28.56 193.074 30C193.074 31.4267 193.548 32.6267 194.494 33.6ZM215.792 32.5V23H218.092V37H216.292L209.692 27.5V37H207.392V23H209.192L215.792 32.5Z" fill="white"/>
<rect x="230" y="18" width="24" height="24" rx="12" fill="#2447FF"/>
<path d="M239 34.433V25.8746C239 25.1088 239.879 24.676 240.486 25.143L246.049 29.4222C246.529 29.7917 246.529 30.516 246.049 30.8855L240.486 35.1647C239.879 35.6317 239 35.1989 239 34.433Z" fill="white"/>
<defs>
<linearGradient id="paint0_linear_41_3611" x1="135" y1="0" x2="135" y2="64" gradientUnits="userSpaceOnUse">
<stop stop-color="white"/>
<stop offset="1" stop-color="white"/>
</linearGradient>
</defs>
</svg>
