<svg width="240" height="98" viewBox="0 0 240 98" fill="none" xmlns="http://www.w3.org/2000/svg">
<g filter="url(#filter0_f_10_29)">
<ellipse cx="120" cy="53.5" rx="80" ry="23.5" fill="#2447FF"/>
</g>
<path d="M40 22H181.25L200 37.0391V77H184.167V73.5625H163.333V77H57.0833L40 61.5312V22Z" fill="#2447FF"/>
<path d="M85.2363 55.26C83.063 55.26 81.563 54.4067 80.7363 52.7L82.7163 51.54C83.183 52.5267 84.0297 53.02 85.2563 53.02C86.0563 53.02 86.6697 52.8267 87.0963 52.44C87.5363 52.04 87.7563 51.48 87.7563 50.76V41H90.0563V50.76C90.0563 52.2 89.603 53.3133 88.6963 54.1C87.803 54.8733 86.6497 55.26 85.2363 55.26ZM104.825 53.16C103.425 54.56 101.712 55.26 99.6854 55.26C97.6587 55.26 95.9387 54.56 94.5254 53.16C93.1254 51.7467 92.4254 50.0267 92.4254 48C92.4254 45.9733 93.1254 44.26 94.5254 42.86C95.9387 41.4467 97.6587 40.74 99.6854 40.74C101.712 40.74 103.425 41.4467 104.825 42.86C106.239 44.26 106.945 45.9733 106.945 48C106.945 50.0267 106.239 51.7467 104.825 53.16ZM96.1454 51.6C97.1187 52.5467 98.2987 53.02 99.6854 53.02C101.085 53.02 102.259 52.5467 103.205 51.6C104.165 50.64 104.645 49.44 104.645 48C104.645 46.56 104.165 45.3667 103.205 44.42C102.259 43.46 101.085 42.98 99.6854 42.98C98.2854 42.98 97.1054 43.46 96.1454 44.42C95.1987 45.3667 94.7254 46.56 94.7254 48C94.7254 49.4267 95.1987 50.6267 96.1454 51.6ZM109.443 55V41H111.743V55H109.443ZM123.341 50.5V41H125.641V55H123.841L117.241 45.5V55H114.941V41H116.741L123.341 50.5ZM134.097 50.36V41H136.397V50.22C136.397 51.0867 136.65 51.7733 137.157 52.28C137.677 52.7733 138.424 53.02 139.397 53.02C140.37 53.02 141.11 52.7733 141.617 52.28C142.137 51.7733 142.397 51.0867 142.397 50.22V41H144.697V50.36C144.697 51.84 144.204 53.0333 143.217 53.94C142.244 54.82 140.97 55.26 139.397 55.26C137.824 55.26 136.55 54.82 135.577 53.94C134.59 53.0333 134.097 51.84 134.097 50.36ZM152.403 55.26C151.056 55.26 149.909 54.96 148.963 54.36C148.029 53.7467 147.376 52.9 147.003 51.82L148.983 50.66C149.543 52.2333 150.703 53.02 152.463 53.02C153.316 53.02 153.963 52.8533 154.403 52.52C154.843 52.1867 155.063 51.74 155.063 51.18C155.063 50.62 154.829 50.1867 154.363 49.88C153.896 49.5733 153.069 49.24 151.883 48.88C150.669 48.52 149.689 48.0933 148.943 47.6C148.036 46.96 147.583 46.02 147.583 44.78C147.583 43.54 148.023 42.56 148.903 41.84C149.769 41.1067 150.829 40.74 152.083 40.74C153.189 40.74 154.163 41.0133 155.003 41.56C155.856 42.0933 156.509 42.8467 156.963 43.82L155.023 44.94C154.436 43.6333 153.456 42.98 152.083 42.98C151.416 42.98 150.883 43.14 150.483 43.46C150.083 43.7667 149.883 44.1867 149.883 44.72C149.883 45.24 150.083 45.6533 150.483 45.96C150.883 46.2533 151.623 46.5667 152.703 46.9C153.369 47.1267 153.756 47.26 153.863 47.3C154.036 47.3533 154.383 47.4867 154.903 47.7C155.329 47.8733 155.669 48.06 155.923 48.26C156.963 49.0733 157.443 50.0333 157.363 51.14C157.363 52.4067 156.903 53.4133 155.983 54.16C155.089 54.8933 153.896 55.26 152.403 55.26Z" fill="white"/>
<defs>
<filter id="filter0_f_10_29" x="0" y="-10" width="240" height="127" filterUnits="userSpaceOnUse" color-interpolation-filters="sRGB">
<feFlood flood-opacity="0" result="BackgroundImageFix"/>
<feBlend mode="normal" in="SourceGraphic" in2="BackgroundImageFix" result="shape"/>
<feGaussianBlur stdDeviation="20" result="effect1_foregroundBlur_10_29"/>
</filter>
</defs>
</svg>
