<svg width="37" height="48" viewBox="0 0 37 48" fill="none" xmlns="http://www.w3.org/2000/svg">
<path fill-rule="evenodd" clip-rule="evenodd" d="M10.8656 25.4418C10.9476 25.3516 11.0475 25.2796 11.1589 25.2302C11.2702 25.1809 11.3908 25.1554 11.5126 25.1553L31.477 25.1716C31.5621 25.1718 31.6452 25.1967 31.7164 25.2432C31.7876 25.2897 31.8437 25.3559 31.8779 25.4337C31.9122 25.5115 31.9231 25.5976 31.9094 25.6815C31.8957 25.7654 31.8579 25.8435 31.8006 25.9063L27.5491 30.5875C27.4671 30.6777 27.3671 30.7498 27.2556 30.7992C27.1441 30.8485 27.0235 30.874 26.9015 30.874L6.93763 30.8577C6.85262 30.8575 6.76947 30.8326 6.69831 30.7861C6.62714 30.7396 6.57102 30.6734 6.53677 30.5956C6.50251 30.5178 6.49157 30.4317 6.50531 30.3478C6.51903 30.2639 6.55684 30.1858 6.61412 30.123L10.8656 25.4418ZM31.8006 21.5446C31.8579 21.6075 31.8957 21.6856 31.9094 21.7695C31.9231 21.8533 31.9122 21.9395 31.8779 22.0173C31.8437 22.095 31.7876 22.1613 31.7164 22.2078C31.6452 22.2543 31.5621 22.2791 31.477 22.2794L11.5132 22.2957C11.3913 22.2957 11.2707 22.2702 11.1591 22.2209C11.0476 22.1715 10.9476 22.0994 10.8656 22.0092L6.61412 17.3253C6.55684 17.2624 6.51903 17.1843 6.50531 17.1005C6.49157 17.0166 6.50251 16.9304 6.53677 16.8526C6.57102 16.7749 6.62714 16.7086 6.69831 16.6621C6.76947 16.6156 6.85262 16.5908 6.93763 16.5906L26.902 16.5742C27.0239 16.5743 27.1444 16.5998 27.2558 16.6492C27.3673 16.6985 27.4672 16.7705 27.5491 16.8607L31.8006 21.5446ZM10.8658 8.28551C10.9478 8.19535 11.0477 8.12329 11.1591 8.07396C11.2704 8.02463 11.391 7.9991 11.5128 7.99902L31.4772 8.01536C31.5623 8.01554 31.6454 8.04039 31.7166 8.08692C31.7878 8.13344 31.8439 8.19963 31.8781 8.27743C31.9124 8.35525 31.9233 8.44134 31.9096 8.52524C31.8959 8.60913 31.8581 8.68723 31.8008 8.75009L27.5493 13.4313C27.4673 13.5215 27.3673 13.5936 27.2558 13.6429C27.1443 13.6923 27.0237 13.7178 26.9017 13.7178L6.93783 13.7014C6.85281 13.7012 6.76967 13.6764 6.69851 13.6299C6.62734 13.5834 6.57122 13.5171 6.53697 13.4394C6.50271 13.3616 6.49177 13.2754 6.50551 13.1915C6.51923 13.1077 6.55704 13.0296 6.61432 12.9667L10.8658 8.28551Z" fill="url(#paint0_linear_41_3600)"/>
<defs>
<linearGradient id="paint0_linear_41_3600" x1="20.5331" y1="42.1161" x2="41.6682" y2="16.0255" gradientUnits="userSpaceOnUse">
<stop stop-color="#9945FF"/>
<stop offset="0.2" stop-color="#7962E7"/>
<stop offset="1" stop-color="#00D18C"/>
</linearGradient>
</defs>
</svg>
