<svg width="33" height="32" viewBox="0 0 33 32" fill="none" xmlns="http://www.w3.org/2000/svg">
<rect x="0.5" width="32" height="32" rx="8" fill="url(#paint0_linear_36_1536)"/>
<mask id="mask0_36_1536" style="mask-type:luminance" maskUnits="userSpaceOnUse" x="5" y="7" width="22" height="20">
<path d="M27 7H5V26.9404H27V7Z" fill="white"/>
</mask>
<g mask="url(#mask0_36_1536)">
<path d="M26.5457 12.0158L24.3584 15.8072C21.8632 14.2067 18.9596 13.3592 15.9952 13.3662C15.8443 13.3662 15.6966 13.3693 15.5459 13.3724C15.5049 13.3724 15.461 13.3758 15.42 13.3758C15.379 13.3758 15.3385 13.3789 15.2974 13.3851C15.2032 13.3851 15.112 13.3914 15.0209 13.3976C14.9518 13.4007 14.8827 13.4038 14.8131 13.4103C14.6968 13.4197 14.5835 13.429 14.4672 13.4417L14.3633 13.4511C14.2628 13.4604 14.1623 13.4732 14.0616 13.4856C14.0289 13.4882 13.9964 13.4925 13.9642 13.4984C13.9045 13.5077 13.8416 13.5139 13.7824 13.5243C13.7655 13.525 13.7486 13.5271 13.732 13.5308C13.6944 13.5371 13.6567 13.5433 13.6222 13.5495C13.5531 13.5558 13.4838 13.5685 13.4144 13.5809C13.3768 13.5872 13.3423 13.5937 13.3046 13.5999C13.2991 13.5994 13.2936 13.6005 13.2888 13.603L13.1787 13.622C13.141 13.6282 13.1065 13.6344 13.0688 13.6438C12.9242 13.6698 12.7795 13.7004 12.6351 13.7318C12.4998 13.7632 12.3586 13.7947 12.2233 13.8292C12.1352 13.8513 12.0506 13.8733 11.9657 13.8985C11.8518 13.9235 11.7396 13.955 11.6294 13.9928C11.6091 13.9965 11.5891 14.0017 11.5696 14.0084C11.5507 14.0146 11.5351 14.018 11.5193 14.0242L11.4533 14.0429C11.4001 14.0588 11.3466 14.0743 11.2975 14.0933C11.2661 14.1026 11.2347 14.1123 11.2063 14.1216C11.1942 14.1239 11.1826 14.1281 11.1718 14.1341C11.0679 14.1655 10.9674 14.2 10.8638 14.2379C10.8072 14.2566 10.7506 14.2756 10.6974 14.2977C10.6028 14.3291 10.5086 14.3667 10.4174 14.4015C10.3949 14.4088 10.3729 14.4174 10.3515 14.4275C10.3076 14.4431 10.2603 14.4621 10.2164 14.4795C10.1881 14.4891 10.1629 14.5015 10.1385 14.5109C10.0256 14.555 9.91545 14.6054 9.80534 14.6524C9.80223 14.6524 9.80223 14.6524 9.79911 14.6555C9.642 14.7215 9.48749 14.7939 9.33713 14.8661C9.19898 14.9321 9.06057 14.998 8.92553 15.0705C8.88138 15.0926 8.83438 15.1175 8.7905 15.1427C8.68039 15.1993 8.57028 15.259 8.46355 15.3188C8.41006 15.3471 8.35968 15.3754 8.30956 15.4068C8.21529 15.4587 8.12103 15.5166 8.02676 15.5732C8.01136 15.5807 7.99661 15.5894 7.98261 15.5992C7.97599 15.6046 7.96854 15.6088 7.96054 15.6117C7.85381 15.6745 7.74708 15.7439 7.64321 15.8098L6.38295 13.6256C6.37671 13.616 6.37048 13.6035 6.36087 13.5846L5.45535 12.0158C5.16154 11.508 5.0066 10.9317 5.00609 10.3451C5.00558 9.75835 5.15953 9.18184 5.45245 8.67349C5.74538 8.16515 6.16697 7.74287 6.67483 7.44911C7.1827 7.15535 7.75895 7.00045 8.34565 7H23.6481C23.7076 7 23.7642 7 23.8239 7.00312H23.8302C23.8479 7.0057 23.8658 7.00674 23.8836 7.00623C24.4495 7.04616 24.9959 7.22932 25.4715 7.53848C25.9471 7.84764 26.3363 8.27265 26.6025 8.77357C26.8686 9.27449 27.0031 9.83488 26.9931 10.402C26.9832 10.9692 26.8292 11.5245 26.5457 12.0158Z" fill="url(#paint1_linear_36_1536)"/>
<path d="M24.3585 15.8058L24.1767 16.12L23.6802 16.9842L23.3343 17.5815V17.5846C23.3311 17.5877 23.328 17.5877 23.328 17.5909L18.8931 25.2687C18.5993 25.7766 18.1772 26.1982 17.6689 26.4914C17.1607 26.7845 16.5843 26.9388 15.9976 26.9388C15.4109 26.9388 14.8345 26.7845 14.3263 26.4914C13.8181 26.1982 13.3959 25.7766 13.1021 25.2687L12.7469 24.6558L12.7438 24.6496C12.7422 24.6462 12.7401 24.6431 12.7376 24.6403L8.1759 16.7297L7.64175 15.8058C7.74563 15.7398 7.85236 15.6705 7.95909 15.6076C7.96709 15.6048 7.97454 15.6005 7.98114 15.5952C7.99513 15.5854 8.00991 15.5767 8.02528 15.5692C8.11955 15.5126 8.21381 15.456 8.30808 15.4027C8.3582 15.3713 8.40858 15.343 8.46207 15.3147C8.5688 15.255 8.67894 15.1953 8.78904 15.1386C8.83293 15.1127 8.87993 15.0885 8.92408 15.0665C9.05912 14.994 9.1975 14.928 9.33565 14.8621C9.48653 14.7899 9.64055 14.7174 9.79766 14.6515C9.80078 14.6484 9.80078 14.6484 9.80389 14.6484C9.914 14.6014 10.0241 14.551 10.137 14.5068C10.163 14.4975 10.1874 14.485 10.2149 14.4754C10.2588 14.4567 10.3061 14.4378 10.35 14.4235C10.3714 14.4134 10.3934 14.4047 10.416 14.3975C10.5071 14.363 10.6014 14.3253 10.6959 14.2936C10.7491 14.2716 10.8057 14.2526 10.8623 14.2339C10.9662 14.196 11.0667 14.1615 11.1703 14.13C11.1811 14.124 11.1928 14.1198 11.2049 14.1176C11.2332 14.1082 11.2646 14.0986 11.296 14.0893C11.3464 14.0703 11.3999 14.0547 11.4518 14.0389L11.5178 14.0202C11.5336 14.014 11.5492 14.0106 11.5682 14.0043C11.5877 13.9977 11.6076 13.9925 11.6279 13.9888C11.738 13.954 11.851 13.9225 11.9642 13.8945C12.0491 13.8685 12.1338 13.8472 12.2218 13.8252C12.3602 13.7906 12.4952 13.7592 12.6337 13.7278C12.778 13.6964 12.9227 13.6649 13.0673 13.6397C13.105 13.6304 13.1395 13.6242 13.1772 13.6179L13.2873 13.599C13.2922 13.5965 13.2977 13.5954 13.3031 13.5959C13.3408 13.5896 13.3753 13.5831 13.413 13.5769C13.52 13.5582 13.6236 13.5424 13.7303 13.5268C13.7469 13.5231 13.7638 13.5209 13.7807 13.5203C13.8404 13.5109 13.9033 13.5016 13.9625 13.4943C13.9947 13.4884 14.0272 13.4842 14.0598 13.4816L14.1323 13.4722C14.2076 13.4629 14.2863 13.4533 14.3616 13.4463L14.4655 13.4369C14.5818 13.4242 14.695 13.4149 14.8114 13.4055C14.8804 13.399 14.9495 13.3959 15.0191 13.3928C15.0887 13.3897 15.1607 13.3834 15.2298 13.3803C15.2517 13.3788 15.2737 13.3788 15.2957 13.3803C15.3775 13.3741 15.4593 13.371 15.5442 13.3676C15.6948 13.3645 15.8426 13.3614 15.9935 13.3614C18.9588 13.355 21.8631 14.2037 24.3585 15.8058Z" fill="url(#paint2_linear_36_1536)"/>
<g style="mix-blend-mode:multiply" opacity="0.1">
<path d="M24.3584 15.8068L24.1766 16.121L23.6801 16.9852C17.2026 14.2102 11.1464 15.659 8.17692 16.7307L7.64277 15.8068C7.74664 15.7408 7.85337 15.6715 7.9601 15.6086C7.9681 15.6057 7.97556 15.6015 7.98215 15.5961C7.99615 15.5863 8.01092 15.5777 8.02632 15.5702C8.12059 15.5136 8.21486 15.457 8.30912 15.4037C8.35924 15.3723 8.40962 15.344 8.46311 15.3157C8.56984 15.256 8.67995 15.1962 8.79006 15.1396C8.83394 15.1137 8.88095 15.0895 8.92509 15.0674C9.06013 14.995 9.19854 14.929 9.33669 14.8631C9.48757 14.7909 9.64157 14.7184 9.79867 14.6525C9.80179 14.6493 9.80179 14.6493 9.80491 14.6493C9.91501 14.6023 10.0251 14.552 10.1381 14.5078C10.1641 14.4985 10.1885 14.486 10.216 14.4764C10.2599 14.4577 10.3071 14.4387 10.351 14.4244C10.3724 14.4144 10.3944 14.4057 10.417 14.3985C10.5081 14.3639 10.6024 14.3263 10.6969 14.2946C10.7502 14.2725 10.8068 14.2536 10.8634 14.2349C10.9673 14.197 11.0678 14.1624 11.1714 14.131C11.1821 14.125 11.1938 14.1208 11.2059 14.1185C11.2342 14.1092 11.2656 14.0996 11.2971 14.0902C11.3474 14.0713 11.4009 14.0557 11.4529 14.0399L11.5188 14.0212C11.5347 14.0149 11.5503 14.0116 11.5692 14.0053C11.5887 13.9987 11.6087 13.9935 11.6289 13.9897C11.739 13.9549 11.852 13.9235 11.9652 13.8955C12.0501 13.8695 12.1348 13.8482 12.2228 13.8261C12.3612 13.7916 12.4963 13.7602 12.6347 13.7288C12.7791 13.6973 12.9237 13.6659 13.0684 13.6407C13.106 13.6314 13.1406 13.6251 13.1782 13.6189L13.2883 13.5999C13.2932 13.5974 13.2987 13.5963 13.3042 13.5968C13.4109 13.5779 13.5145 13.5592 13.6215 13.5465C13.656 13.5402 13.6937 13.534 13.7313 13.5278C13.7479 13.5241 13.7648 13.5219 13.7817 13.5213C13.8415 13.5119 13.9043 13.5026 13.9635 13.4953C13.9957 13.4894 14.0282 13.4852 14.0609 13.4826L14.1333 13.4732C14.2086 13.4639 14.2873 13.4543 14.3626 13.4473L14.4665 13.4379C14.5829 13.4252 14.6961 13.4158 14.8124 13.4065C14.8815 13.4 14.9506 13.3969 15.0202 13.3938C15.0898 13.3906 15.1617 13.3844 15.2308 13.3813L15.4193 13.3719C15.4603 13.3719 15.5042 13.3686 15.5452 13.3686C15.6959 13.3655 15.8436 13.3623 15.9945 13.3623C18.9595 13.3562 21.8634 14.2049 24.3584 15.8068Z" fill="black"/>
</g>
<g style="mix-blend-mode:screen" opacity="0.3">
<path d="M24.8735 8.27292C23.2835 8.2698 10.7594 8.42068 7.97788 14.5054L6.26811 11.5449C6.05745 11.1801 5.94651 10.7662 5.94643 10.3449C5.94634 9.92357 6.05713 9.50967 6.26764 9.14472C6.47815 8.77977 6.78098 8.47664 7.14573 8.26576C7.51047 8.05489 7.92428 7.94371 8.3456 7.94338H23.6481C24.0786 7.94172 24.5018 8.05551 24.8735 8.27292Z" fill="white"/>
</g>
<g style="mix-blend-mode:multiply" opacity="0.3">
<path d="M26.5457 12.0153L24.3584 15.8067L24.1766 16.1209L24.1607 16.1116C23.8621 15.9262 23.5606 15.748 23.2518 15.5772C22.9402 15.4138 22.6263 15.2567 22.3089 15.1097L21.8249 14.902L21.3346 14.7072C21.0045 14.5846 20.6716 14.4714 20.3384 14.3678C19.9989 14.2672 19.6595 14.1761 19.3202 14.0944C18.9743 14.0188 18.6318 13.9528 18.283 13.8965C17.5877 13.78 16.8851 13.7122 16.1804 13.6934C15.8409 13.6841 15.4608 13.6841 15.1214 13.6934C14.7723 13.7059 14.4174 13.7279 14.0652 13.7656C13.7133 13.797 13.3641 13.8505 13.0125 13.904C12.6608 13.9575 12.3147 14.0297 11.969 14.1118C10.5838 14.4407 9.24432 14.9389 7.9808 15.5951C8.27009 15.3938 8.56223 15.2022 8.87022 15.0199C9.1782 14.8376 9.50203 14.6649 9.82872 14.5047C10.4841 14.1863 11.1628 13.9183 11.8589 13.703C12.208 13.5963 12.5601 13.4989 12.9151 13.4174C13.2701 13.3358 13.6347 13.2665 13.9961 13.213C14.3576 13.1595 14.7233 13.1156 15.0899 13.0831C15.4701 13.0517 15.8095 13.0393 16.19 13.0393C16.9257 13.0355 17.6608 13.0838 18.3898 13.1836C18.7533 13.234 19.1189 13.3031 19.4773 13.3787C19.8385 13.4605 20.1938 13.5514 20.549 13.6521C20.904 13.7588 21.253 13.8752 21.5987 14.0009C21.9443 14.1328 22.2837 14.2774 22.62 14.4314C22.9563 14.5854 23.2801 14.7553 23.6037 14.9311C23.8174 15.0505 24.0249 15.1824 24.2324 15.3084L25.4768 13.2184L26.206 12.021C26.2689 11.9203 26.3255 11.8229 26.3725 11.7286C26.4247 11.636 26.472 11.5406 26.514 11.443L26.6272 11.1412C26.6555 11.0373 26.6742 10.9306 26.6994 10.827C26.7235 10.7216 26.7382 10.6143 26.7433 10.5063C26.7601 10.3993 26.7644 10.2907 26.756 10.1827C26.7513 9.965 26.726 9.74824 26.6805 9.53532L26.5862 9.21772C26.5517 9.11385 26.5015 9.01361 26.4636 8.90974C26.4186 8.80915 26.3672 8.71157 26.3096 8.61759C26.2577 8.51821 26.1955 8.42448 26.1242 8.33791C25.9925 8.15684 25.8431 7.98938 25.6781 7.83802L25.4171 7.62118L25.1281 7.4394C25.0303 7.38066 24.9285 7.32919 24.8232 7.28541C24.7214 7.23376 24.6151 7.19168 24.5056 7.15972C24.2854 7.0885 24.0595 7.03637 23.8304 7.00391C23.8481 7.00649 23.866 7.00753 23.8839 7.00702C24.4495 7.0471 24.9957 7.2303 25.4711 7.5394C25.9465 7.8485 26.3355 8.27337 26.6016 8.77409C26.8678 9.27482 27.0023 9.83498 26.9925 10.4019C26.9827 10.9689 26.8289 11.5241 26.5457 12.0153Z" fill="black"/>
</g>
<g style="mix-blend-mode:screen" opacity="0.6">
<path d="M21.426 7C21.426 7 20.0525 7.12569 17.994 7.21684C16.9664 7.26384 15.7659 7.30487 14.4805 7.33318C13.8362 7.34252 13.1698 7.3646 12.4941 7.3646C11.8184 7.3646 11.1334 7.37395 10.4481 7.37706C9.76302 7.37395 9.07485 7.36771 8.39915 7.3646C7.80174 7.34478 7.21201 7.50344 6.70522 7.82035C6.24856 8.10786 5.87307 8.50745 5.61448 8.98109C5.35588 9.45473 5.2228 9.98666 5.22787 10.5263V10.7054C5.23436 10.7621 5.24371 10.8215 5.24994 10.8781C5.26115 10.9895 5.28113 11.0999 5.30967 11.2082C5.33564 11.3152 5.36316 11.4159 5.38757 11.5162C5.43146 11.6201 5.47223 11.7174 5.51326 11.8148C5.67661 12.1784 5.85579 12.516 5.9807 12.7827C6.17546 13.1914 6.30452 13.468 6.35776 13.5809L5.45535 12.0158C5.16154 11.508 5.0066 10.9317 5.00609 10.3451C5.00558 9.75835 5.15953 9.18184 5.45245 8.67349C5.74538 8.16515 6.16697 7.74287 6.67483 7.44911C7.1827 7.15535 7.75895 7.00045 8.34565 7H21.426Z" fill="white"/>
</g>
<g style="mix-blend-mode:multiply" opacity="0.3">
<path d="M23.3273 17.5898L18.8929 25.2677C18.5991 25.7756 18.177 26.1972 17.6687 26.4904C17.1605 26.7835 16.5841 26.9378 15.9974 26.9378C15.4107 26.9378 14.8343 26.7835 14.3261 26.4904C13.8179 26.1972 13.3957 25.7756 13.1019 25.2677L12.7467 24.6548C12.7877 24.7052 12.9386 24.9031 13.1622 25.2173C13.3237 25.4277 13.5024 25.6243 13.6964 25.8052C13.9465 26.0268 14.2283 26.21 14.5323 26.3488C14.8885 26.5021 15.2677 26.5956 15.6544 26.6253C16.0787 26.6471 16.5034 26.5875 16.9053 26.4495C17.3271 26.3041 17.7113 26.0669 18.0302 25.7549C18.1943 25.5944 18.3389 25.4151 18.4608 25.2207L18.5678 25.0602L18.6496 24.9127L18.8412 24.573C19.1051 24.1269 19.3692 23.6805 19.6268 23.2406C19.8844 22.8007 20.155 22.3732 20.4095 21.9583C20.9187 21.1286 21.409 20.3648 21.8427 19.7143C22.6485 18.4948 23.2551 17.6872 23.3273 17.5898Z" fill="black"/>
</g>
</g>
<defs>
<linearGradient id="paint0_linear_36_1536" x1="16.5" y1="0" x2="16.5" y2="32" gradientUnits="userSpaceOnUse">
<stop offset="0.385869" stop-color="#F7F8FA"/>
<stop offset="1" stop-color="#999999"/>
</linearGradient>
<linearGradient id="paint1_linear_36_1536" x1="15.9999" y1="6.77975" x2="15.9999" y2="14.0126" gradientUnits="userSpaceOnUse">
<stop stop-color="#1E00D6"/>
<stop offset="0.085" stop-color="#0016DA"/>
<stop offset="0.466" stop-color="#0500EE"/>
<stop offset="0.785" stop-color="#0019FA"/>
<stop offset="1" stop-color="#1400FF"/>
</linearGradient>
<linearGradient id="paint2_linear_36_1536" x1="16.0001" y1="13.4835" x2="16.0001" y2="26.6266" gradientUnits="userSpaceOnUse">
<stop stop-color="#007CD6"/>
<stop offset="0.085" stop-color="#0023DA"/>
<stop offset="0.466" stop-color="#2100EE"/>
<stop offset="0.785" stop-color="#000AFA"/>
<stop offset="1" stop-color="#3300FF"/>
</linearGradient>
</defs>
</svg>
