<svg width="32" height="32" viewBox="0 0 32 32" fill="none" xmlns="http://www.w3.org/2000/svg">
<g clip-path="url(#clip0_36_1564)">
<rect width="32" height="32" rx="8" fill="#2447FF"/>
<path fill-rule="evenodd" clip-rule="evenodd" d="M-3.97541 28.6673L-1.39196 32.7464L36 -4.64551L-5 -2.37643L-3.97541 28.6673Z" fill="url(#paint0_linear_36_1564)"/>
<path fill-rule="evenodd" clip-rule="evenodd" d="M-2.47971 33.8348L32.7367 -1.38157L18.5957 -3.28516L-3.29553 19.014L-2.47971 33.8348Z" fill="url(#paint1_linear_36_1564)"/>
<path fill-rule="evenodd" clip-rule="evenodd" d="M30.9691 16.5653L11.2534 36.689L-2.47968 33.8336L32.7367 -1.38281L30.9691 16.5653Z" fill="url(#paint2_linear_36_1564)"/>
<g filter="url(#filter0_d_36_1564)">
<path d="M23.2912 6.3877H20.9094C20.1744 6.3877 19.5786 6.98348 19.5786 7.71847V10.1003C19.5786 10.8353 20.1744 11.4312 20.9094 11.4312H23.2912C24.0262 11.4312 24.6221 10.8353 24.6221 10.1003V7.71847C24.6221 6.98348 24.0262 6.3877 23.2912 6.3877Z" fill="white"/>
<path d="M13.9636 11.5731H16.0552C16.9207 11.6223 17.744 11.9633 18.3908 12.5405L18.4692 12.6277C19.0494 13.2726 19.3909 14.097 19.4366 14.9633V17.0462C19.4366 17.409 19.5807 17.7571 19.8373 18.0137C20.0939 18.2703 20.442 18.4144 20.8049 18.4144H23.2538C23.6167 18.4144 23.9647 18.2703 24.2213 18.0137C24.4779 17.7571 24.622 17.409 24.622 17.0462V14.5973C24.622 14.2344 24.4779 13.8864 24.2213 13.6298C23.9647 13.3732 23.6167 13.229 23.2538 13.229H21.1709C20.3046 13.1833 19.4802 12.8418 18.8352 12.2616L18.7481 12.1832C18.1697 11.5371 17.8286 10.7134 17.7807 9.84756V7.75595C17.7807 7.39309 17.6366 7.04505 17.38 6.78846C17.1234 6.53186 16.7754 6.3877 16.4125 6.3877H13.9636C13.6007 6.3877 13.2527 6.53186 12.9961 6.78846C12.7395 7.04505 12.5953 7.39309 12.5953 7.75595V10.2049C12.5953 10.5678 12.7395 10.9158 12.9961 11.1724C13.2527 11.429 13.6007 11.5731 13.9636 11.5731Z" fill="white"/>
<path d="M23.646 20.1477H21.574C20.7116 20.0917 19.8944 19.7339 19.2604 19.1346L19.0273 18.8968C18.4526 18.2449 18.1143 17.4115 18.069 16.5359V14.4216C18.0667 14.0556 17.9232 13.7051 17.6695 13.4462C17.4158 13.1873 17.0724 13.0409 16.7136 13.0386H14.6417C13.7863 13.0019 12.9694 12.6659 12.328 12.0872L12.095 11.8493C11.5202 11.1975 11.182 10.3641 11.1367 9.48845V7.38307C11.1367 7.01626 10.9939 6.66446 10.7397 6.40507C10.4855 6.14572 10.1408 6 9.78128 6H7.35537C6.99593 6 6.65115 6.14572 6.397 6.40507C6.14281 6.66446 6 7.01626 6 7.38307V9.85845C6 10.2253 6.14281 10.5771 6.397 10.8364C6.65115 11.0958 6.99593 11.2415 7.35537 11.2415H9.4187C10.2899 11.2822 11.1202 11.631 11.7669 12.2281L12 12.466C12.5729 13.1191 12.9109 13.9517 12.9582 14.8269V16.9411C12.9605 17.3072 13.104 17.6576 13.3577 17.9165C13.6114 18.1754 13.9549 18.3218 14.3136 18.3242H16.3856C17.2342 18.3783 18.0402 18.7228 18.6734 19.302L18.9064 19.5398C19.4794 20.1929 19.8173 21.0255 19.8647 21.9007V24.0149C19.867 24.381 20.0105 24.7315 20.2642 24.9903C20.5179 25.2492 20.8613 25.3956 21.2201 25.398H23.6546C24.0134 25.3956 24.3568 25.2492 24.6105 24.9903C24.8642 24.7315 25.0078 24.381 25.01 24.0149V21.5307C25.0077 21.1631 24.863 20.8113 24.6075 20.5522C24.3519 20.2931 24.0062 20.1476 23.646 20.1477Z" fill="white"/>
<path d="M9.99827 19.9668H7.43316C6.64165 19.9668 6 20.5626 6 21.2976V23.6795C6 24.4145 6.64165 25.0103 7.43316 25.0103H9.99827C10.7898 25.0103 11.4314 24.4145 11.4314 23.6795V21.2976C11.4314 20.5626 10.7898 19.9668 9.99827 19.9668Z" fill="white"/>
<path d="M16.6585 19.8247H14.5756C13.7093 19.7789 12.8849 19.4375 12.2399 18.8573L12.1528 18.7789C11.5707 18.1282 11.2293 17.2977 11.1854 16.4258V14.3342C11.1811 13.9818 11.041 13.6446 10.7942 13.393C10.5474 13.1413 10.213 12.9946 9.86074 12.9834H7.36825C7.00536 12.9834 6.65736 13.1276 6.40076 13.3842C6.14416 13.6408 6 13.9888 6 14.3517V16.8006C6 17.1635 6.14416 17.5115 6.40076 17.7681C6.65736 18.0247 7.00536 18.1688 7.36825 18.1688H9.45986C10.3254 18.218 11.1487 18.559 11.7955 19.1362L11.8739 19.2233C12.4541 19.8683 12.7956 20.6927 12.8413 21.559V23.6418C12.8413 23.8223 12.877 24.0009 12.9463 24.1675C13.0156 24.334 13.1172 24.4853 13.2451 24.6124C13.3731 24.7396 13.525 24.8402 13.692 24.9085C13.859 24.9767 14.0379 25.0113 14.2183 25.0101H16.6585C17.0213 25.0101 17.3694 24.866 17.626 24.6094C17.8826 24.3528 18.0267 24.0047 18.0267 23.6418V21.1929C18.0267 20.8301 17.8826 20.482 17.626 20.2254C17.3694 19.9688 17.0213 19.8247 16.6585 19.8247Z" fill="white"/>
</g>
</g>
<defs>
<filter id="filter0_d_36_1564" x="6" y="6" width="20.01" height="20.3979" filterUnits="userSpaceOnUse" color-interpolation-filters="sRGB">
<feFlood flood-opacity="0" result="BackgroundImageFix"/>
<feColorMatrix in="SourceAlpha" type="matrix" values="0 0 0 0 0 0 0 0 0 0 0 0 0 0 0 0 0 0 127 0" result="hardAlpha"/>
<feOffset dx="1" dy="1"/>
<feComposite in2="hardAlpha" operator="out"/>
<feColorMatrix type="matrix" values="0 0 0 0 0 0 0 0 0 0 0 0 0 0 0 0 0 0 0.25 0"/>
<feBlend mode="normal" in2="BackgroundImageFix" result="effect1_dropShadow_36_1564"/>
<feBlend mode="normal" in="SourceGraphic" in2="effect1_dropShadow_36_1564" result="shape"/>
</filter>
<linearGradient id="paint0_linear_36_1564" x1="25.7581" y1="-7.66917" x2="-0.841403" y2="-6.7481" gradientUnits="userSpaceOnUse">
<stop stop-color="#3375F6"/>
<stop offset="1" stop-color="#50A1FF"/>
</linearGradient>
<linearGradient id="paint1_linear_36_1564" x1="-1.6285" y1="4.31332" x2="-9.32455" y2="25.235" gradientUnits="userSpaceOnUse">
<stop stop-color="#3430FF" stop-opacity="0.01"/>
<stop offset="1" stop-color="#010AE2"/>
</linearGradient>
<linearGradient id="paint2_linear_36_1564" x1="16.4954" y1="-8.26706" x2="-11.6535" y2="17.5464" gradientUnits="userSpaceOnUse">
<stop stop-color="#3272EF"/>
<stop offset="0.643329" stop-color="#0C6DDE"/>
<stop offset="1" stop-color="#0174DE"/>
</linearGradient>
<clipPath id="clip0_36_1564">
<rect width="32" height="32" rx="8" fill="white"/>
</clipPath>
</defs>
</svg>
