<svg width="32" height="32" viewBox="0 0 32 32" fill="none" xmlns="http://www.w3.org/2000/svg">
<g clip-path="url(#clip0_36_1440)">
<rect width="32" height="32" rx="8" fill="#2447FF"/>
<path fill-rule="evenodd" clip-rule="evenodd" d="M-3.97541 28.6673L-1.39196 32.7464L36 -4.64551L-5 -2.37643L-3.97541 28.6673Z" fill="url(#paint0_linear_36_1440)"/>
<path fill-rule="evenodd" clip-rule="evenodd" d="M-2.47971 33.8348L32.7367 -1.38157L18.5957 -3.28516L-3.29553 19.014L-2.47971 33.8348Z" fill="url(#paint1_linear_36_1440)"/>
<path fill-rule="evenodd" clip-rule="evenodd" d="M30.9691 16.5653L11.2534 36.689L-2.47968 33.8336L32.7367 -1.38281L30.9691 16.5653Z" fill="url(#paint2_linear_36_1440)"/>
<g filter="url(#filter0_d_36_1440)">
<path d="M16.0788 7.02884L19.546 9.03105L21.304 8.01885L16.0788 5L7.35074 10.0433L9.09989 11.0555L16.0788 7.02884Z" fill="white"/>
<path d="M23.0532 9.03125L16.0788 13.0579L12.6115 11.0557L10.8579 12.0679L16.0788 15.0823L24.8112 10.0435L23.0532 9.03125Z" fill="white"/>
<path d="M8.7536 15.8061L7 14.7939V20.8228L15.728 25.866V23.8416L8.7536 19.8106V15.8061Z" fill="white"/>
<path d="M7 12.7685L13.9744 16.7952V20.7996L15.728 21.8162V15.783L7 10.7441V12.7685Z" fill="white"/>
<path d="M21.6548 14.7939V12.7695L16.4295 15.7839V25.866L18.1831 24.8538V16.7961L21.6548 14.7939Z" fill="white"/>
<path d="M23.4039 11.7563V19.8096L19.9367 21.8162V23.8406L25.162 20.8218V10.7441L23.4039 11.7563Z" fill="white"/>
</g>
</g>
<defs>
<filter id="filter0_d_36_1440" x="7" y="5" width="19.162" height="21.8662" filterUnits="userSpaceOnUse" color-interpolation-filters="sRGB">
<feFlood flood-opacity="0" result="BackgroundImageFix"/>
<feColorMatrix in="SourceAlpha" type="matrix" values="0 0 0 0 0 0 0 0 0 0 0 0 0 0 0 0 0 0 127 0" result="hardAlpha"/>
<feOffset dx="1" dy="1"/>
<feComposite in2="hardAlpha" operator="out"/>
<feColorMatrix type="matrix" values="0 0 0 0 0 0 0 0 0 0 0 0 0 0 0 0 0 0 0.25 0"/>
<feBlend mode="normal" in2="BackgroundImageFix" result="effect1_dropShadow_36_1440"/>
<feBlend mode="normal" in="SourceGraphic" in2="effect1_dropShadow_36_1440" result="shape"/>
</filter>
<linearGradient id="paint0_linear_36_1440" x1="25.7581" y1="-7.66917" x2="-0.841403" y2="-6.7481" gradientUnits="userSpaceOnUse">
<stop stop-color="#3375F6"/>
<stop offset="1" stop-color="#50A1FF"/>
</linearGradient>
<linearGradient id="paint1_linear_36_1440" x1="-1.6285" y1="4.31332" x2="-9.32455" y2="25.235" gradientUnits="userSpaceOnUse">
<stop stop-color="#3430FF" stop-opacity="0.01"/>
<stop offset="1" stop-color="#010AE2"/>
</linearGradient>
<linearGradient id="paint2_linear_36_1440" x1="16.4954" y1="-8.26706" x2="-11.6535" y2="17.5464" gradientUnits="userSpaceOnUse">
<stop stop-color="#3272EF"/>
<stop offset="0.643329" stop-color="#0C6DDE"/>
<stop offset="1" stop-color="#0174DE"/>
</linearGradient>
<clipPath id="clip0_36_1440">
<rect width="32" height="32" rx="8" fill="white"/>
</clipPath>
</defs>
</svg>
